HIERARCHY
ROOT Hips
{
	OFFSET 0.000000 89.005402 0.000000
	CHANNELS 6 Xposition Yposition Zposition Xrotation Yrotation Zrotation
	JOINT Spine
	{
		OFFSET 0.116900 10.681000 0.373400
		CHANNELS 3 Xrotation Yrotation Zrotation
		JOINT Spine1
		{
			OFFSET 0.000000 13.840401 0.053500
			CHANNELS 3 Xrotation Yrotation Zrotation
			JOINT Spine2
			{
				OFFSET 0.000000 14.712700 -0.366200
				CHANNELS 3 Xrotation Yrotation Zrotation
				JOINT Neck
				{
					OFFSET 0.000000 35.415497 -3.314200
					CHANNELS 3 Xrotation Yrotation Zrotation
					JOINT Head
					{
						OFFSET 0.000000 16.899200 1.218300
						CHANNELS 3 Xrotation Yrotation Zrotation
						JOINT HeadTop_End
						{
							OFFSET 0.000000 22.206207 2.192500
							CHANNELS 3 Xrotation Yrotation Zrotation
							End Site
							{
								OFFSET 0.000000 22.314178 0.000000
							}
						}
					}
				}
				JOINT LeftShoulder
				{
					OFFSET 12.896400 26.716293 -4.548400
					CHANNELS 3 Xrotation Yrotation Zrotation
					JOINT LeftArm
					{
						OFFSET 19.027000 -4.857010 -1.718400
						CHANNELS 3 Xrotation Yrotation Zrotation
						JOINT LeftForeArm
						{
							OFFSET 24.179897 0.000000 0.000000
							CHANNELS 3 Xrotation Yrotation Zrotation
							JOINT LeftHand
							{
								OFFSET 27.156403 0.000000 0.000000
								CHANNELS 3 Xrotation Yrotation Zrotation
								JOINT LeftHandIndex1
								{
									OFFSET 16.441200 0.000000 0.000000
									CHANNELS 3 Xrotation Yrotation Zrotation
									JOINT LeftHandIndex2
									{
										OFFSET 4.821899 0.000000 0.000000
										CHANNELS 3 Xrotation Yrotation Zrotation
										JOINT LeftHandIndex3
										{
											OFFSET 6.386497 0.000000 0.000000
											CHANNELS 3 Xrotation Yrotation Zrotation
											JOINT LeftHandIndex4
											{
												OFFSET 5.188988 0.000000 0.000000
												CHANNELS 3 Xrotation Yrotation Zrotation
												End Site
												{
													OFFSET -0.178703 5.185913 0.000177
												}
											}
										}
									}
								}
								JOINT LeftHandThumb1
								{
									OFFSET 6.534897 -5.032593 5.900300
									CHANNELS 3 Xrotation Yrotation Zrotation
									JOINT LeftHandThumb2
									{
										OFFSET 3.818176 -2.204422 2.204423
										CHANNELS 3 Xrotation Yrotation Zrotation
										JOINT LeftHandThumb3
										{
											OFFSET 3.252098 -1.877594 1.877601
											CHANNELS 3 Xrotation Yrotation Zrotation
											JOINT LeftHandThumb4
											{
												OFFSET 5.251778 -3.032120 3.032117
												CHANNELS 3 Xrotation Yrotation Zrotation
												End Site
												{
													OFFSET 0.000023 6.780014 0.000000
												}
											}
										}
									}
								}
							}
						}
					}
				}
				JOINT RightShoulder
				{
					OFFSET -12.896300 26.716293 -4.548400
					CHANNELS 3 Xrotation Yrotation Zrotation
					JOINT RightArm
					{
						OFFSET -19.027000 -4.857010 -1.718400
						CHANNELS 3 Xrotation Yrotation Zrotation
						JOINT RightForeArm
						{
							OFFSET -24.179897 0.000000 0.000000
							CHANNELS 3 Xrotation Yrotation Zrotation
							JOINT RightHand
							{
								OFFSET -27.156403 0.000000 0.000000
								CHANNELS 3 Xrotation Yrotation Zrotation
								JOINT RightHandThumb1
								{
									OFFSET -6.591202 -4.852203 5.988100
									CHANNELS 3 Xrotation Yrotation Zrotation
									JOINT RightHandThumb2
									{
										OFFSET -3.818176 -2.204422 2.204423
										CHANNELS 3 Xrotation Yrotation Zrotation
										JOINT RightHandThumb3
										{
											OFFSET -3.252098 -1.877594 1.877601
											CHANNELS 3 Xrotation Yrotation Zrotation
											JOINT RightHandThumb4
											{
												OFFSET -5.251778 -3.032120 3.032117
												CHANNELS 3 Xrotation Yrotation Zrotation
												End Site
												{
													OFFSET -0.000023 6.780014 0.000000
												}
											}
										}
									}
								}
								JOINT RightHandIndex1
								{
									OFFSET -16.029404 0.000000 0.000000
									CHANNELS 3 Xrotation Yrotation Zrotation
									JOINT RightHandIndex2
									{
										OFFSET -5.213303 0.000000 0.000000
										CHANNELS 3 Xrotation Yrotation Zrotation
										JOINT RightHandIndex3
										{
											OFFSET -6.386528 0.000000 0.000000
											CHANNELS 3 Xrotation Yrotation Zrotation
											JOINT RightHandIndex4
											{
												OFFSET -5.189026 0.000000 0.000000
												CHANNELS 3 Xrotation Yrotation Zrotation
												End Site
												{
													OFFSET 0.236702 5.183624 0.001972
												}
											}
										}
									}
								}
							}
						}
					}
				}
			}
		}
	}
	JOINT LeftUpLeg
	{
		OFFSET 14.073000 -7.904099 -1.463000
		CHANNELS 3 Xrotation Yrotation Zrotation
		JOINT LeftLeg
		{
			OFFSET -0.109806 -34.073280 4.093200
			CHANNELS 3 Xrotation Yrotation Zrotation
			JOINT LeftFoot
			{
				OFFSET 0.109806 -29.899420 -6.319000
				CHANNELS 3 Xrotation Yrotation Zrotation
				JOINT LeftToeBase
				{
					OFFSET 1.551100 -14.988700 20.535801
					CHANNELS 3 Xrotation Yrotation Zrotation
					JOINT LeftToe_End
					{
						OFFSET 0.221200 0.570800 13.248301
						CHANNELS 3 Xrotation Yrotation Zrotation
						End Site
						{
							OFFSET 0.000000 13.262435 0.000000
						}
					}
				}
			}
		}
	}
	JOINT RightUpLeg
	{
		OFFSET -13.839300 -7.904099 -1.463000
		CHANNELS 3 Xrotation Yrotation Zrotation
		JOINT RightLeg
		{
			OFFSET 0.109694 -34.073219 4.093300
			CHANNELS 3 Xrotation Yrotation Zrotation
			JOINT RightFoot
			{
				OFFSET -0.109694 -29.899384 -6.319200
				CHANNELS 3 Xrotation Yrotation Zrotation
				JOINT RightToeBase
				{
					OFFSET -1.551100 -14.988700 20.535801
					CHANNELS 3 Xrotation Yrotation Zrotation
					JOINT RightToe_End
					{
						OFFSET -0.221200 0.570900 13.248299
						CHANNELS 3 Xrotation Yrotation Zrotation
						End Site
						{
							OFFSET 0.000000 13.262440 0.000000
						}
					}
				}
			}
		}
	}
}
MOTION
Frames: 5
Frame Time: 0.033333
-0.965515 76.515541 -2.250856 0.952020 4.433291 8.491108 0.134174 -5.216996 -11.894943 3.978165 -0.913045 1.438214 4.004069 -0.831006 1.424310 -3.347964 -0.304048 -0.499852 -8.391464 -1.582794 -2.986219 -0.000000 -0.000000 0.000000 0.557202 -3.073182 5.586614 16.102598 -40.998945 -60.808450 0.000157 -91.641536 0.000070 -5.478448 1.139492 4.774114 0.002325 -0.179961 1.491340 0.033836 0.683063 -5.669643 0.090758 1.116504 -9.293558 0.000000 0.000005 0.000001 -1.860190 15.919518 8.011410 4.919645 20.227535 1.633426 -0.579469 1.575012 2.538722 -0.000000 0.000000 -0.000001 0.724831 7.694573 5.963176 9.171849 32.690860 61.177383 -0.000078 101.439634 0.000072 22.526838 1.013487 -5.520859 -2.270754 -17.676912 -8.853651 5.876714 -22.798557 -1.141410 -1.273748 0.137279 -2.094892 0.000001 -0.000000 0.000001 0.000081 -0.034988 0.287032 0.094021 -1.141935 9.413728 0.092829 -1.134677 9.353564 -0.000003 0.000000 0.000001 -12.798998 15.197169 -20.584643 42.300649 11.834742 11.223014 -29.624306 28.700858 -0.815053 -4.768678 -0.000020 -0.000006 0.000000 0.000000 0.000000 -13.401488 -16.450739 -21.667944 72.846747 -16.266869 -5.185754 13.311719 -12.499890 14.438359 -46.156431 -9.785718 21.502583 -0.000001 0.000000 0.000000 
-0.596954 77.447052 0.567888 0.758723 5.578726 7.234780 0.364960 -7.240334 -11.108215 3.937513 -1.124867 1.363809 3.969055 -1.056116 1.314475 -3.250896 -0.144377 -0.483341 -8.524990 -0.806880 -2.344852 -0.000000 -0.000000 -0.000000 0.584522 -3.361201 6.124172 11.870765 -43.105341 -62.044141 -0.000743 -85.813090 -0.000745 -3.839021 1.284270 4.728513 0.002394 -0.181920 1.507591 0.032696 0.671561 -5.573770 0.088090 1.100122 -9.156091 -0.000000 -0.000000 -0.000001 -1.860186 15.919525 8.011413 4.919653 20.227535 1.633430 -0.579471 1.575005 2.538728 -0.000000 -0.000000 0.000002 0.717655 7.521583 6.006943 10.857474 32.230013 61.287096 0.000071 103.467824 -0.000075 17.651874 0.041978 -5.192181 -2.270747 -17.676915 -8.853655 5.876713 -22.798553 -1.141408 -1.273753 0.137277 -2.094889 -0.000001 -0.000001 0.000000 0.000181 -0.050938 0.418021 0.103338 -1.196703 9.869780 0.093320 -1.137734 9.378972 -0.000003 -0.000000 -0.000002 -9.703413 12.085722 -19.704315 39.335982 11.784993 11.167274 -29.723631 28.628176 -1.581077 -3.776430 0.000024 0.000002 0.000000 0.000000 -0.000000 -20.475860 -16.902932 -20.656070 77.506070 -17.439169 -4.186652 1.189883 -16.069318 10.008777 -36.868733 -5.114404 16.632679 0.000001 -0.000000 -0.000000 
-0.277860 78.227394 2.690640 1.224950 5.889632 4.557523 0.418436 -7.853498 -9.127017 3.973306 -1.141583 1.310518 4.004885 -1.092697 1.247778 -3.227887 -0.136391 -0.174220 -8.680184 -0.445556 -1.967500 0.000000 -0.000000 0.000000 0.648852 -3.864462 6.730923 9.283118 -44.341366 -62.968054 -0.000091 -80.154619 -0.000101 -1.760855 0.983220 4.683195 0.002184 -0.173695 1.439399 0.031488 0.659035 -5.469548 0.086096 1.087581 -9.050759 0.000001 -0.000002 0.000001 -1.860185 15.919520 8.011414 4.919644 20.227535 1.633429 -0.579463 1.575004 2.538722 0.000001 -0.000000 0.000001 0.712400 6.903208 5.643518 12.668910 31.680743 61.024796 0.000065 105.408602 -0.000056 13.840661 -0.442497 -5.129960 -2.270748 -17.676914 -8.853654 5.876718 -22.798552 -1.141410 -1.273753 0.137277 -2.094890 -0.000002 -0.000000 0.000000 0.000022 0.021081 -0.172920 0.106129 -1.212543 10.001864 0.098499 -1.168625 9.636005 -0.000000 -0.000002 -0.000001 -8.526242 9.886598 -17.137121 38.027024 11.541605 11.124751 -30.384141 29.061161 -2.060650 -3.047768 0.000012 -0.000001 0.000000 0.000000 0.000000 -26.824648 -15.991442 -15.703139 78.083938 -17.501748 -3.388669 -5.565588 -20.675230 4.929815 -29.619716 -2.397011 11.931942 -0.000000 0.000002 0.000000 
-0.005279 78.830002 4.559011 2.161659 5.260186 0.512508 0.225403 -7.224974 -5.508615 4.194424 -0.983091 1.561803 4.221598 -0.957480 1.504882 -3.372980 -0.176867 0.188329 -8.916041 -0.131651 -2.372158 0.000000 -0.000000 -0.000000 0.753345 -4.503506 7.276487 8.234880 -44.351847 -63.716267 -0.000009 -75.204583 -0.000017 0.652436 0.431666 4.694430 0.001998 -0.166518 1.379998 0.031386 0.658050 -5.461436 0.085192 1.081873 -9.002809 0.000000 0.000000 0.000001 -1.860186 15.919516 8.011414 4.919651 20.227535 1.633428 -0.579468 1.575004 2.538724 -0.000004 0.000001 -0.000000 0.690812 5.765602 4.750989 14.348351 31.092572 60.680931 0.000065 106.551812 -0.000066 12.024412 -0.342088 -5.153008 -2.270749 -17.676914 -8.853653 5.876718 -22.798555 -1.141410 -1.273753 0.137277 -2.094887 0.000002 -0.000001 0.000001 0.001134 0.126043 -1.034343 0.107495 -1.220398 10.067390 0.103194 -1.196002 9.864036 0.000002 0.000000 0.000001 -8.609173 8.164758 -11.310466 39.188255 10.868562 7.727058 -33.228399 28.942708 -1.078169 -2.577272 -0.000008 -0.000006 0.000000 -0.000003 0.000000 -31.998330 -15.994708 -8.071128 74.234027 -17.207820 -4.519698 -8.682865 -24.121803 0.176862 -23.838444 -0.789971 7.111575 0.000000 -0.000001 0.000000 
0.214837 79.264816 6.359034 3.043594 4.077014 -3.759146 -0.131120 -6.211202 -2.459710 4.613690 -0.758145 2.219223 4.638699 -0.755683 2.166627 -3.770478 -0.104269 0.172419 -9.337116 0.482418 -3.205757 0.000000 -0.000000 0.000000 0.813768 -5.009540 6.758416 7.563981 -43.202709 -65.024542 0.000016 -70.498590 0.000020 4.261372 -0.065772 4.694372 0.002009 -0.167121 1.384986 0.031776 0.662164 -5.495529 0.084194 1.075649 -8.950687 0.000001 0.000002 0.000001 -1.860185 15.919515 8.011415 4.919653 20.227537 1.633431 -0.579467 1.575006 2.538725 -0.000001 0.000000 0.000000 0.633437 4.236706 3.120381 15.421976 30.036826 60.733830 0.000069 105.784194 -0.000066 12.820782 0.054526 -5.185971 -2.270751 -17.676919 -8.853649 5.876717 -22.798553 -1.141407 -1.273752 0.137282 -2.094888 -0.000000 0.000001 -0.000001 0.003480 0.220442 -1.809226 0.101303 -1.184920 9.771783 0.104596 -1.203934 9.930070 0.000000 0.000003 -0.000002 -8.504416 7.758537 -4.554568 40.660734 10.226084 3.750748 -36.323260 27.868249 -0.307528 -2.463771 -0.000002 0.000005 -0.000000 -0.000000 -0.000000 -34.857765 -18.511647 -0.516294 66.375355 -16.533204 -7.761105 -10.447049 -24.011433 -4.293624 -18.957537 -0.048791 1.813430 -0.000000 0.000000 -0.000001 
